<?xml version="1.0" encoding="utf-8"?>
<!-- Generator: Adobe Illustrator 25.0.1, SVG Export Plug-In . SVG Version: 6.00 Build 0)  -->
<svg version="1.1" id="Calque_1" xmlns="http://www.w3.org/2000/svg" xmlns:xlink="http://www.w3.org/1999/xlink" x="0px" y="0px"
	 viewBox="0 0 341.1 119.1" style="enable-background:new 0 0 341.1 119.1;" xml:space="preserve">
<style type="text/css">
	.st0{fill:#606676;}
	.st1{fill:#F3903A;}
</style>
<g id="Calque_2_1_">
	<g id="Calque_1-2">
		<path class="st0" d="M0,31c0-0.6,0.6-1.2,1.2-1.1h1.6L29.2,58h0.1V31.7c0-0.7,0.5-1.2,1.2-1.2h5.8c0.7,0,1.2,0.6,1.2,1.2v42.8
			c0,0.6-0.6,1.2-1.2,1.1h-1.5L8.3,46.5H8.2v27.3C8.2,74.5,7.7,75,7,75H1.2C0.6,75,0,74.5,0,73.8V31z"/>
		<path class="st0" d="M49.4,73.9l13.9-30c0.1-0.3,0.4-0.5,0.8-0.5h0.4c0.3,0,0.6,0.2,0.8,0.5l13.9,30c0.2,0.4,0.1,0.9-0.3,1.1
			C78.7,75,78.6,75,78.4,75h-4.9c-0.8,0-1.2-0.3-1.6-1.1l-1.6-3.5H58.2L56.6,74c-0.3,0.6-0.9,1-1.6,1h-4.9c-0.4,0-0.8-0.3-0.8-0.8
			C49.3,74.1,49.3,74,49.4,73.9z M67.7,64.3L64.3,57l0,0l-3.4,7.3H67.7z"/>
		<path class="st0" d="M87.1,44.2c0-0.5,0.4-0.8,0.8-0.8h1.1l17.8,17.1l0,0V44.7c0-0.5,0.4-0.8,0.8-0.8c0,0,0,0,0,0h5.3
			c0.5,0,0.8,0.4,0.8,0.8v30c0,0.5-0.4,0.8-0.8,0.8h-0.7c-0.2,0-0.4-0.1-0.6-0.2L94.2,57.6l0,0v16.6c0,0.5-0.4,0.8-0.8,0.8
			c0,0,0,0,0,0H88c-0.5,0-0.8-0.4-0.8-0.8L87.1,44.2z"/>
		<path class="st0" d="M164.3,31.7c0-0.6,0.5-1.2,1.1-1.2h15.1c12.3,0,22.3,10,22.3,22.3S192.8,75,180.5,75h-15.1
			c-0.6,0-1.2-0.6-1.1-1.2V31.7z M179.8,67.3c8.3,0,14.3-6.2,14.3-14.6s-6.1-14.5-14.3-14.5h-7.2v29.1L179.8,67.3z"/>
		<path class="st0" d="M237.1,29.9c5.7-0.2,11.2,2,15.4,5.9c0.5,0.4,0.6,1.2,0.2,1.7c0,0-0.1,0.1-0.1,0.1l-3.9,4
			c-0.3,0.4-1,0.5-1.4,0.2c-0.1-0.1-0.1-0.1-0.2-0.2c-2.7-2.4-6.2-3.7-9.8-3.8c-8.1,0-14.2,6.8-14.2,14.8c-0.2,8,6.2,14.5,14.1,14.7
			c0,0,0.1,0,0.1,0c3.6,0,7-1.3,9.7-3.6c0.4-0.4,1.1-0.4,1.6,0l3.9,4.1c0.5,0.5,0.4,1.3-0.1,1.7c-4.1,4-9.7,6.2-15.5,6.2
			c-12.6,0-22.9-10.2-22.9-22.9C214.2,40.1,224.5,29.9,237.1,29.9C237.1,29.9,237.1,29.9,237.1,29.9L237.1,29.9z"/>
		<path class="st0" d="M261.3,73.4l19.8-42.8c0.2-0.4,0.6-0.7,1.1-0.7h0.6c0.5,0,0.9,0.3,1.1,0.7l19.6,42.8c0.3,0.5,0.1,1.2-0.5,1.5
			c-0.2,0.1-0.4,0.1-0.6,0.1h-5.5c-0.8,0.1-1.6-0.5-1.9-1.3l-3.1-6.9h-19l-3.1,6.9c-0.3,0.8-1,1.3-1.8,1.3h-5.5
			c-0.6,0-1.2-0.4-1.2-1C261.2,73.8,261.2,73.5,261.3,73.4z M288.8,59.8l-6.4-14h-0.2l-6.2,14H288.8z"/>
		<path class="st0" d="M315.4,31.7c0-0.7,0.5-1.2,1.2-1.2c0,0,0,0,0,0h5.9c0.7,0,1.2,0.6,1.2,1.2v35.7h16.2c0.7,0,1.2,0.5,1.2,1.2
			v5.2c0,0.7-0.5,1.2-1.2,1.2h-23.3c-0.7,0-1.2-0.5-1.2-1.2L315.4,31.7z"/>
		<path class="st1" d="M141.1,94.5V75.4c8.8-0.7,15.4-8.3,14.8-17.2c-0.6-7.9-6.9-14.2-14.8-14.8V24.6c6.8-0.6,11.8-6.6,11.2-13.4
			c-0.6-6.4-6-11.3-12.4-11.2c-6.8,0-12.3,5.5-12.3,12.2c0,0,0,0.1,0,0.1c0,6.3,4.8,11.7,11.1,12.2v18.9c-8.8,0-16,7.2-16,16
			c0,8.8,7.2,16,16,16v19.1c-6.8,0.7-11.8,6.7-11.1,13.5c0.7,6.8,6.7,11.8,13.5,11.1c6.8-0.7,11.8-6.7,11.1-13.5
			C151.6,99.7,146.9,95.1,141.1,94.5L141.1,94.5z M133.1,12.4c0-3.8,3-6.8,6.8-6.8c3.8,0,6.8,3,6.8,6.8s-3,6.8-6.8,6.8c0,0,0,0,0,0
			C136.1,19.2,133,16.1,133.1,12.4L133.1,12.4z M130.8,59.5c0-4.9,4-8.9,8.9-8.9c4.9,0,8.9,4,8.9,8.9c0,4.9-4,8.9-8.9,8.9
			c0,0,0,0,0,0C134.8,68.3,130.8,64.3,130.8,59.5L130.8,59.5z M139.9,113.6c-3.8,0-6.8-3.1-6.8-6.9c0-3.8,3.1-6.8,6.9-6.8
			c3.8,0,6.8,3.1,6.8,6.9c0,0,0,0,0,0C146.7,110.6,143.6,113.6,139.9,113.6L139.9,113.6z"/>
	</g>
</g>
</svg>
