<?xml version="1.0" encoding="utf-8"?>
<!-- Generator: Adobe Illustrator 25.0.1, SVG Export Plug-In . SVG Version: 6.00 Build 0)  -->
<svg version="1.1" id="Calque_1" xmlns="http://www.w3.org/2000/svg" xmlns:xlink="http://www.w3.org/1999/xlink" x="0px" y="0px"
	 viewBox="0 0 576 159" style="enable-background:new 0 0 576 159;" xml:space="preserve">
<style type="text/css">
	.st0{fill:#606676;}
	.st1{fill:#F3903A;}
</style>
<g>
	<g>
		<path class="st0" d="M11,128.2c2.7,0,5.3,1,7.3,2.8c0.1,0.1,0.2,0.4,0,0.5c0,0,0,0,0,0l-0.5,0.5c-0.2,0.2-0.3,0.1-0.5,0
			c-3.9-3.5-9.9-3.2-13.4,0.6s-3.2,9.9,0.6,13.4c1.8,1.6,4.1,2.5,6.5,2.5c2.4-0.1,4.6-1,6.3-2.6c0.1-0.1,0.3-0.2,0.5-0.1l0.5,0.5
			c0.1,0.1,0.1,0.4,0,0.5c0,0,0,0,0,0c-2,1.9-4.6,3-7.3,3c-6,0.2-11-4.5-11.2-10.6c-0.2-6,4.5-11,10.6-11.2
			C10.6,128.2,10.8,128.2,11,128.2L11,128.2z"/>
		<path class="st0" d="M28.6,137.2c3.5-0.2,6.5,2.6,6.6,6.1s-2.6,6.5-6.1,6.6c-3.5,0.2-6.5-2.6-6.6-6.1c0-0.1,0-0.2,0-0.3
			C22.5,140.1,25.2,137.3,28.6,137.2z M28.6,148.7c2.8,0.2,5.3-1.9,5.4-4.8c0.2-2.8-1.9-5.3-4.8-5.4s-5.3,1.9-5.4,4.8
			c0,0.1,0,0.2,0,0.3C23.7,146.3,25.8,148.6,28.6,148.7C28.6,148.7,28.6,148.7,28.6,148.7z"/>
		<path class="st0" d="M39.9,128.9c0-0.2,0.2-0.4,0.4-0.4c0,0,0,0,0,0h0.5c0.2,0,0.4,0.2,0.4,0.4v10.3c1.2-1.2,2.7-1.9,4.4-1.9
			c3.2,0,4.9,1.9,4.9,5.5v6.5c0,0.2-0.2,0.4-0.4,0.4h-0.5c-0.2,0-0.4-0.2-0.4-0.4v-6.5c0-2.8-1.3-4.2-3.6-4.2
			c-1.7,0.1-3.2,0.8-4.3,2.1v8.6c0,0.2-0.1,0.4-0.3,0.4c0,0-0.1,0-0.1,0h-0.6c-0.2,0-0.3-0.2-0.3-0.4c0,0,0,0,0,0L39.9,128.9z"/>
		<path class="st0" d="M61.4,137.2c2.9-0.1,5.4,2.2,5.5,5.2c0,0.1,0,0.2,0,0.4c0,0.5,0,1.2-0.4,1.2h-9.6c0,2.6,2.1,4.8,4.7,4.8
			c1.3,0,2.5-0.4,3.6-1.1c0.3-0.2,0.4-0.2,0.6,0l0.3,0.4c0.1,0.1,0.1,0.3-0.1,0.5c-1.3,0.9-2.8,1.4-4.4,1.4c-3.7,0-6-2.8-6-6.4
			S57.7,137.2,61.4,137.2z M65.6,142.8c0-2.4-1.4-4.4-4.1-4.4c-2.5-0.1-4.5,1.9-4.6,4.4c0,0,0,0,0,0H65.6z"/>
		<path class="st0" d="M72,137.9c0-0.2,0.2-0.4,0.4-0.4h0.4c0.2,0,0.3,0.1,0.4,0.3l0.1,1.2c0.9-1.2,2.3-1.9,3.8-1.9
			c0.6,0,1.3,0.1,1.9,0.4c0.3,0.1,0.4,0.3,0.3,0.6l-0.2,0.6c-0.1,0.2-0.3,0.2-0.5,0.1c-0.5-0.2-1-0.4-1.6-0.4
			c-1.5,0-2.8,0.8-3.6,2.1v8.6c0,0.2-0.1,0.4-0.3,0.4c0,0-0.1,0-0.1,0h-0.6c-0.2,0-0.3-0.2-0.3-0.4c0,0,0,0,0,0L72,137.9z"/>
		<path class="st0" d="M88.2,137.2c2.9-0.1,5.4,2.2,5.5,5.2c0,0.1,0,0.2,0,0.4c0,0.5,0,1.2-0.4,1.2h-9.7c0,2.6,2.1,4.7,4.7,4.8
			c1.3,0,2.5-0.4,3.6-1.1c0.3-0.2,0.4-0.2,0.5,0l0.3,0.4c0.1,0.1,0.1,0.3-0.1,0.5c-1.3,0.9-2.8,1.4-4.4,1.4c-3.7,0-6-2.8-6-6.4
			S84.6,137.2,88.2,137.2z M92.4,142.8c0-2.4-1.4-4.4-4.1-4.4c-2.5-0.1-4.5,1.9-4.6,4.4c0,0,0,0,0,0H92.4z"/>
		<path class="st0" d="M98.8,137.9c0-0.2,0.2-0.4,0.4-0.4c0,0,0,0,0,0h0.3c0.2,0,0.3,0.1,0.4,0.3l0.1,1.3c1.2-1.2,2.8-1.9,4.5-1.9
			c3.4,0,4.9,2.1,4.9,5.5v6.5c0,0.2-0.2,0.4-0.4,0.4h-0.6c-0.2,0-0.4-0.2-0.4-0.4v-6.5c0-2.8-1.3-4.2-3.6-4.2
			c-1.7,0.1-3.2,0.8-4.3,2.1v8.6c0,0.2-0.1,0.4-0.3,0.4c0,0-0.1,0-0.1,0h-0.6c-0.2,0-0.3-0.2-0.3-0.4c0,0,0,0,0,0V137.9z"/>
		<path class="st0" d="M115.7,138.7h-1.4c-0.3,0-0.4-0.1-0.4-0.4v-0.5c0-0.2,0.2-0.3,0.4-0.3h1.4v-3.3c0-0.2,0.2-0.4,0.4-0.4
			c0,0,0,0,0,0h0.5c0.2,0,0.4,0.2,0.4,0.4v3.3h4.2c0.2,0,0.4,0.2,0.4,0.4c0,0,0,0,0,0v0.4c0,0.2-0.1,0.4-0.3,0.4c0,0,0,0-0.1,0H117
			v7.7c0,1.4,0.2,2.2,1.6,2.2c1-0.1,1.9-0.3,2.8-0.8c0.3-0.1,0.4,0,0.5,0.1l0.2,0.4c0.1,0.1,0.1,0.3,0,0.5c0,0,0,0-0.1,0
			c-1,0.7-2.2,1.1-3.5,1.1c-2.5,0-2.7-1.5-2.7-3.4L115.7,138.7z"/>
		<path class="st0" d="M134,128.4c0-0.1,0.1-0.2,0.3-0.2h1.1c0.1,0,0.3,0.1,0.3,0.2l9.6,18.6h0.1l9.7-18.6c0-0.1,0.2-0.2,0.3-0.2
			h1.1c0.1,0,0.2,0.1,0.3,0.2v20.9c0,0.3-0.1,0.4-0.3,0.4h-0.6c-0.2,0-0.3-0.1-0.4-0.3v-18.5h-0.1l-9.5,18.1
			c-0.1,0.2-0.2,0.3-0.4,0.2h-0.1c-0.2,0-0.3,0-0.4-0.2l-9.5-18.1h-0.1v18.5c0,0.2-0.2,0.3-0.4,0.3h-0.6c-0.3,0-0.3-0.1-0.3-0.4
			L134,128.4z"/>
		<path class="st0" d="M167.1,137.2c3.5-0.2,6.5,2.6,6.6,6.1s-2.6,6.5-6.1,6.6s-6.5-2.6-6.6-6.1c0-0.1,0-0.2,0-0.3
			C161,140.1,163.7,137.3,167.1,137.2z M167.1,148.7c2.8,0.2,5.2-2,5.4-4.8c0.2-2.8-2-5.2-4.8-5.4c-2.8-0.2-5.2,2-5.4,4.8
			c0,0.1,0,0.2,0,0.3c-0.1,2.7,2,5,4.7,5.1C167.1,148.7,167.1,148.7,167.1,148.7z"/>
		<path class="st0" d="M183.5,137.2c1.3,0,2.6,0.4,3.7,1.2v-9.6c0-0.2,0.2-0.4,0.4-0.4c0,0,0,0,0,0h0.6c0.2,0,0.4,0.2,0.4,0.4v20.4
			c0,0.2-0.2,0.4-0.4,0.4h-0.3c-0.2,0-0.4-0.1-0.4-0.3c0,0,0,0,0,0l-0.1-1.1c-1.1,1.1-2.6,1.7-4.2,1.8c-3.1,0-5.6-2.8-5.6-6.4
			c-0.2-3.3,2.3-6.1,5.6-6.3C183.2,137.2,183.4,137.2,183.5,137.2z M183.2,148.7c1.6,0,3.1-0.8,4-2.1v-6.8c-1-0.8-2.3-1.3-3.6-1.3
			c-2.6,0-4.8,2.1-4.8,4.8c0,0.1,0,0.2,0,0.3C178.8,146.4,180.6,148.7,183.2,148.7z"/>
		<path class="st0" d="M199.6,137.2c2.9-0.1,5.4,2.2,5.5,5.2c0,0.1,0,0.3,0,0.4c0,0.5,0,1.2-0.5,1.2H195c0,2.6,2.1,4.7,4.7,4.8
			c1.3,0,2.5-0.4,3.6-1.1c0.3-0.2,0.4-0.2,0.6,0l0.3,0.4c0.1,0.1,0.1,0.3-0.1,0.5c-1.3,0.9-2.8,1.4-4.4,1.4c-3.7,0-6-2.8-6-6.4
			S196,137.2,199.6,137.2z M203.8,142.8c0-2.4-1.4-4.4-4.1-4.4c-2.5-0.1-4.5,1.9-4.6,4.4c0,0,0,0,0,0H203.8z"/>
		<path class="st0" d="M210.2,128.9c0-0.2,0.2-0.4,0.4-0.4h0.6c0.2,0,0.4,0.2,0.4,0.4v20.4c0,0.2-0.1,0.4-0.3,0.4c0,0-0.1,0-0.1,0
			h-0.6c-0.2,0-0.3-0.2-0.3-0.4c0,0,0,0,0,0V128.9z"/>
		<path class="st0" d="M217.2,130.6c0-0.6,0.5-1,1-1s1,0.5,1,1s-0.5,1-1,1S217.2,131.2,217.2,130.6z M217.6,137.9
			c0-0.2,0.2-0.4,0.4-0.4h0.6c0.2,0,0.4,0.2,0.4,0.4v11.3c0,0.2-0.1,0.4-0.3,0.4c0,0-0.1,0-0.1,0h-0.6c-0.2,0-0.3-0.2-0.3-0.4
			c0,0,0,0,0,0V137.9z"/>
		<path class="st0" d="M225,137.9c0-0.2,0.2-0.4,0.4-0.4c0,0,0,0,0,0h0.3c0.2,0,0.3,0.1,0.4,0.3l0.1,1.3c1.2-1.2,2.8-1.9,4.5-1.9
			c3.4,0,4.9,2.1,4.9,5.5v6.5c0,0.2-0.2,0.4-0.4,0.4h-0.5c-0.2,0-0.4-0.2-0.4-0.4v-6.5c0-2.8-1.3-4.2-3.6-4.2
			c-1.7,0.1-3.2,0.8-4.3,2.1v8.6c0,0.2-0.1,0.4-0.3,0.4c0,0-0.1,0-0.1,0h-0.6c-0.2,0-0.3-0.2-0.3-0.4c0,0,0,0,0,0L225,137.9z"/>
		<path class="st0" d="M242.2,145.4c-0.6-0.9-0.9-1.9-0.9-3c-0.1-2.8,2.1-5.1,4.9-5.1c0.1,0,0.3,0,0.4,0h5c0.2,0,0.4,0.2,0.4,0.4
			c0,0,0,0,0,0v0.4c0,0.2-0.1,0.3-0.3,0.4l-2.2,0.1c0.6,0.3,1.9,1.4,1.9,3.9c0.1,2.7-2.1,4.9-4.8,5c-0.1,0-0.2,0-0.2,0
			c-1.2,0.1-2.4-0.3-3.3-1.1c-0.9,0.4-1.5,1.2-1.5,2.2c0,1.4,1.2,1.8,2.4,1.8h4.4c2.6,0,4.5,1.2,4.5,3.9s-2.5,4.9-6.2,4.9
			c-4.1,0-5.9-2.4-5.9-4.5c0-1.3,0.8-2.5,1.9-3.2c-1.3-0.3-2.3-1.4-2.4-2.8C240.3,147.3,241,146,242.2,145.4z M246.5,157.8
			c2.7,0,4.8-1.6,4.8-3.7c0-1.4-0.9-2.7-3.1-2.7h-3.8c-1.4,0.4-2.3,1.5-2.4,2.9C242,156,243.6,157.8,246.5,157.8z M250.1,142.3
			c0.2-2-1.3-3.7-3.3-3.9c-0.1,0-0.3,0-0.4,0c-2-0.1-3.8,1.5-3.8,3.6c0,0.1,0,0.2,0,0.3c-0.1,2,1.4,3.7,3.4,3.9c0.2,0,0.3,0,0.5,0
			c2,0,3.7-1.6,3.7-3.6C250.1,142.5,250.1,142.4,250.1,142.3L250.1,142.3z"/>
	</g>
	<g>
		<path class="st0" d="M8.3,64.2H0.8c-0.4,0-0.5-0.2-0.5-0.6v-0.6c0-0.3,0.2-0.5,0.5-0.5c0,0,0,0,0,0h16.8c0.3,0,0.5,0.2,0.5,0.5
			c0,0,0,0,0,0v0.7c0,0.3-0.2,0.5-0.5,0.5c0,0,0,0,0,0h-7.5v25.1c0,0.3-0.2,0.5-0.6,0.5H8.8c-0.3,0-0.5-0.2-0.5-0.5L8.3,64.2z"/>
		<path class="st0" d="M24.1,63.1c0-0.3,0.2-0.5,0.5-0.5h15.6c0.3,0,0.5,0.2,0.5,0.5v0.7c0,0.3-0.2,0.5-0.5,0.5H26V75h12.4
			c0.3,0,0.5,0.2,0.5,0.5v0.7c0,0.3-0.2,0.5-0.5,0.5H26v11.5h14.3c0.3,0,0.5,0.2,0.5,0.5v0.6c0,0.3-0.2,0.5-0.5,0.5H24.6
			c-0.3,0-0.5-0.2-0.5-0.5V63.1z"/>
		<path class="st0" d="M61.1,62.2c3.5-0.1,6.9,1.2,9.5,3.6c0.2,0.2,0.2,0.5,0,0.7L70,67.2c-0.2,0.2-0.4,0.2-0.7,0
			c-5-4.5-12.8-4.1-17.3,1c-4.5,5-4.1,12.8,1,17.3c2.2,2,5.1,3.1,8.1,3.1c3.1,0,6-1.2,8.2-3.3c0.2-0.2,0.4-0.2,0.6-0.1l0.7,0.7
			c0.2,0.2,0.2,0.5,0,0.7c0,0,0,0,0,0c-2.6,2.5-6,3.8-9.5,3.8c-7.8,0-14-6.3-14-14S53.3,62.2,61.1,62.2L61.1,62.2z"/>
		<path class="st0" d="M78.6,63.1c0-0.3,0.2-0.5,0.5-0.5h0.8c0.3,0,0.5,0.2,0.5,0.5c0,0,0,0,0,0v12h17.5v-12c0-0.3,0.2-0.5,0.5-0.5
			h0.8c0.3,0,0.5,0.2,0.5,0.5c0,0,0,0,0,0v26.3c0,0.3-0.2,0.5-0.5,0.5c0,0,0,0,0,0h-0.8c-0.3,0-0.5-0.2-0.5-0.5c0,0,0,0,0,0V76.7
			H80.4v12.7c0,0.3-0.2,0.5-0.5,0.5c0,0,0,0,0,0h-0.8c-0.3,0-0.5-0.2-0.5-0.5c0,0,0,0,0,0V63.1z"/>
		<path class="st0" d="M109.6,62.7c0-0.3,0.3-0.5,0.6-0.5c0,0,0,0,0,0h0.7l18.7,24.4l0,0V63.1c0-0.3,0.2-0.5,0.5-0.5h0.8
			c0.3,0,0.5,0.2,0.5,0.5v26.7c0,0.3-0.3,0.5-0.6,0.5h-0.5c0,0-0.4-0.1-18.9-24.6l0,0v23.7c0,0.3-0.2,0.5-0.5,0.5c0,0,0,0,0,0h-0.7
			c-0.3,0-0.5-0.2-0.5-0.5L109.6,62.7z"/>
		<path class="st0" d="M173.6,63.1c0-0.3,0.2-0.5,0.5-0.5h0.8c0.3,0,0.5,0.2,0.5,0.5v25.2h12.4c0.5,0,0.5,0.2,0.5,0.5v0.7
			c0,0.3-0.2,0.4-0.5,0.4h-13.8c-0.3,0-0.5-0.2-0.5-0.5L173.6,63.1z"/>
		<path class="st0" d="M238.9,62.2c3.5-0.1,6.9,1.2,9.4,3.6c0.2,0.2,0.2,0.5,0,0.7c0,0,0,0,0,0c-0.2,0.2-0.4,0.5-0.6,0.7
			s-0.4,0.2-0.7,0c-2.2-2.1-5.2-3.3-8.2-3.3c-6.8,0-12.3,5.5-12.3,12.3s5.5,12.3,12.3,12.3c2.9,0.1,5.7-0.6,8.2-2.1V79h-6.7
			c-0.4,0-0.5-0.2-0.5-0.5v-0.8c0-0.3,0.1-0.5,0.5-0.5h8c0.3,0,0.5,0.2,0.5,0.5v9c0,0.4-0.2,0.8-0.5,1c-2.8,1.7-6.1,2.5-9.4,2.5
			c-7.8,0-14-6.3-14-14S231.2,62.1,238.9,62.2L238.9,62.2L238.9,62.2z"/>
		<path class="st0" d="M257.3,63.1c0-0.3,0.2-0.5,0.5-0.5h0.9c0.3,0,0.5,0.2,0.5,0.5v26.3c0,0.3-0.2,0.5-0.5,0.5c0,0,0,0,0,0h-0.8
			c-0.3,0-0.5-0.2-0.5-0.5c0,0,0,0,0,0L257.3,63.1z"/>
		<path class="st0" d="M269,63.1c0-0.3,0.2-0.5,0.5-0.5h15.6c0.3,0,0.5,0.2,0.5,0.5v0.7c0,0.3-0.2,0.5-0.5,0.5l0,0h-14.3V75h12.4
			c0.3,0,0.5,0.2,0.5,0.5v0.7c0,0.3-0.2,0.5-0.5,0.5h-12.4v11.5h14.3c0.3,0,0.5,0.2,0.5,0.5v0.6c0,0.3-0.2,0.5-0.5,0.5l0,0h-15.6
			c-0.3,0-0.5-0.2-0.5-0.5c0,0,0,0,0,0L269,63.1z"/>
		<path class="st0" d="M292.3,86.2l0.4-0.5c0.3-0.3,0.5-0.4,0.9-0.2c2,1.8,4.5,2.9,7.2,3c3.5,0,6.6-2.4,6.6-5.2c0-3.5-2.9-5-7.6-6.6
			c-4.5-1.6-7.5-3.2-7.5-7.7c0-2.9,2.3-6.9,8.4-6.9c2.4,0,4.7,0.7,6.7,2c0.3,0.2,0.3,0.5,0.2,0.8c0,0,0,0,0,0
			c-0.1,0.2-0.2,0.3-0.3,0.5c-0.1,0.3-0.5,0.4-0.7,0.3c0,0-0.1,0-0.1-0.1c-1.7-1.1-3.7-1.7-5.7-1.8c-4.8,0-6.6,3-6.6,5.2
			c0,3.3,2.5,4.8,6.5,6c5.3,1.8,8.7,3.7,8.7,8.2c0,3.9-4,6.9-8.5,6.9c-3.1,0-6-1.2-8.3-3.2C292.2,86.9,292,86.7,292.3,86.2z"/>
	</g>
	<g>
		<path class="st0" d="M0.3,1.1C0.3,0.5,0.9,0,1.5,0h1.6l26.5,28.1h0.1V1.9c0-0.7,0.5-1.2,1.2-1.2h5.9c0.7,0,1.2,0.6,1.2,1.2v42.9
			c0,0.6-0.6,1.2-1.2,1.1h-1.5L8.6,16.6H8.5V44c0,0.7-0.5,1.2-1.2,1.2H1.5c-0.7,0-1.2-0.6-1.2-1.2V1.1z"/>
		<path class="st0" d="M49.9,43.5L69.7,0.7C69.9,0.3,70.3,0,70.8,0h0.6c0.5,0,0.9,0.3,1.1,0.7l19.6,42.8c0.3,0.6,0.1,1.2-0.5,1.5
			c-0.2,0.1-0.4,0.1-0.6,0.1h-5.5c-0.8,0-1.6-0.5-1.8-1.3l-3.1-6.9h-19l-3.1,6.9c-0.3,0.8-1,1.3-1.8,1.3H51c-0.6,0-1.2-0.4-1.2-1
			C49.8,44,49.8,43.7,49.9,43.5z M77.4,30l-6.4-14h-0.2l-6.2,14H77.4z"/>
		<path class="st0" d="M104.1,1.1c0-0.6,0.6-1.2,1.2-1.1h1.6l26.5,28.1h0.1V1.9c0-0.7,0.5-1.2,1.2-1.2h5.9c0.7,0,1.2,0.6,1.2,1.2
			v42.9c0,0.6-0.6,1.2-1.2,1.1H139l-26.6-29.2h-0.1V44c0,0.7-0.5,1.2-1.2,1.2h-5.8c-0.7,0-1.2-0.6-1.2-1.2V1.1z"/>
		<path class="st1" d="M205.6,62.2c-0.6,0-1.3,0.1-1.9,0.1L193,41.2c10.1-7.6,12.1-22,4.5-32.1C193.1,3.4,186.4,0,179.2,0
			c-12.6,0-22.8,10.2-22.9,22.8c0,0.1,0,0.1,0,0.2c0,7.2,3.4,14.1,9.2,18.4l-10.4,21.1c-7.6-1.4-14.9,3.6-16.3,11.2
			c-1.4,7.6,3.6,14.9,11.2,16.3c7.6,1.4,14.9-3.6,16.3-11.2c0.2-0.8,0.2-1.6,0.2-2.5c0-5.9-3.6-11.1-9.1-13.2l10.1-20.4
			c7.3,4.2,16.2,4.2,23.5-0.1l10.3,20.3c-7.4,2.4-11.4,10.3-9,17.6s10.3,11.4,17.6,9s11.4-10.3,9-17.6
			C217,66.1,211.6,62.2,205.6,62.2z M160.3,76.3c0,4.3-3.5,7.8-7.8,7.7s-7.8-3.5-7.7-7.8c0-4.3,3.5-7.7,7.8-7.7
			C156.8,68.4,160.3,71.9,160.3,76.3C160.3,76.2,160.3,76.3,160.3,76.3z M179.2,37.6c-8.1-0.2-14.5-6.9-14.3-15
			c0.2-7.8,6.5-14.1,14.3-14.3c8.1-0.2,14.8,6.2,15,14.3s-6.2,14.8-14.3,15C179.7,37.6,179.4,37.6,179.2,37.6z M205.6,84
			c-4.3,0-7.8-3.5-7.8-7.8s3.5-7.8,7.8-7.8s7.8,3.5,7.8,7.8c0,0,0,0,0,0.1C213.3,80.5,209.8,84,205.6,84z"/>
		<path class="st0" d="M210.4,44l19.8-42.9c0.2-0.4,0.6-0.7,1.1-0.7h0.6c0.5,0,0.9,0.3,1.1,0.7L252.6,44c0.3,0.6,0.1,1.2-0.5,1.5
			c-0.2,0.1-0.4,0.1-0.6,0.1H246c-0.8,0-1.6-0.5-1.8-1.3l-3.2-6.9h-19l-3.1,6.9c-0.3,0.8-1,1.3-1.9,1.3h-5.5c-0.6,0-1.1-0.5-1.2-1.1
			C210.3,44.3,210.3,44.2,210.4,44z M237.9,30.4l-6.4-14h-0.2l-6.2,14H237.9z"/>
		<path class="st0" d="M282.9,0.4c5.7-0.1,11.3,2,15.4,5.9c0.5,0.4,0.6,1.2,0.2,1.7c0,0-0.1,0.1-0.1,0.1l-3.9,4
			c-0.3,0.4-1,0.5-1.4,0.2c-0.1-0.1-0.1-0.1-0.2-0.2c-2.7-2.4-6.2-3.7-9.8-3.8c-8.1,0-14.2,6.8-14.2,14.8c-0.2,8,6.2,14.6,14.1,14.7
			c0,0,0.1,0,0.1,0c3.6,0,7-1.3,9.7-3.6c0.5-0.4,1.1-0.4,1.6,0l4,4.1c0.5,0.5,0.4,1.3-0.1,1.7c0,0,0,0,0,0c-4.1,4-9.7,6.2-15.5,6.2
			c-12.7,0-22.9-10.3-22.9-22.9C260.1,10.7,270.3,0.4,282.9,0.4C283,0.4,283,0.4,282.9,0.4L282.9,0.4z"/>
		<path class="st0" d="M307.8,44l19.8-42.9c0.2-0.4,0.6-0.7,1.1-0.7h0.6c0.5,0,0.9,0.3,1.1,0.7L350,44c0.3,0.6,0.1,1.2-0.5,1.5
			c-0.2,0.1-0.4,0.1-0.6,0.1h-5.5c-0.8,0-1.6-0.5-1.8-1.3l-3.1-6.9h-19l-3.1,6.9c-0.3,0.8-1,1.3-1.9,1.3h-5.5
			c-0.6,0.1-1.2-0.4-1.3-1C307.6,44.4,307.7,44.2,307.8,44z M335.3,30.4l-6.4-14h-0.2l-6.2,14H335.3z"/>
		<path class="st0" d="M362,2.2c0-0.6,0.5-1.2,1.1-1.2h15.1c12.3-0.3,22.5,9.5,22.8,21.8c0.3,12.3-9.5,22.5-21.8,22.8
			c-0.3,0-0.6,0-0.9,0h-15.1c-0.6,0-1.1-0.6-1.1-1.2V2.2z M377.5,37.8c8.3,0,14.3-6.2,14.3-14.6s-6.1-14.5-14.4-14.5h-7.2v29.1
			H377.5z"/>
		<path class="st0" d="M413.7,2.2c0-0.7,0.5-1.2,1.1-1.3c0,0,0.1,0,0.1,0h25.9c0.7,0,1.2,0.5,1.2,1.2v5.3c0,0.7-0.5,1.2-1.2,1.2H422
			v10.4h15.7c0.7,0,1.2,0.5,1.3,1.2v5.3c0,0.7-0.5,1.2-1.2,1.2H422V38h18.9c0.7,0,1.2,0.5,1.2,1.2v5.2c0,0.7-0.5,1.2-1.2,1.2H415
			c-0.7,0-1.2-0.5-1.2-1.2L413.7,2.2z"/>
		<path class="st0" d="M515.7,2.2c0-0.7,0.5-1.2,1.2-1.2h5.9c0.7,0,1.2,0.6,1.2,1.2v42.2c0,0.7-0.6,1.2-1.2,1.2h-5.9
			c-0.7,0-1.2-0.6-1.2-1.2V2.2z"/>
		<path class="st0" d="M560.1,0.4c5.7-0.1,11.3,2,15.4,5.9c0.5,0.4,0.6,1.2,0.2,1.7c0,0-0.1,0.1-0.1,0.1l-3.9,4
			c-0.3,0.4-1,0.5-1.4,0.2c-0.1-0.1-0.1-0.1-0.2-0.2c-2.7-2.4-6.2-3.7-9.8-3.8c-8.2,0-14.2,6.8-14.2,14.8c-0.2,8,6.2,14.6,14.1,14.7
			c0,0,0.1,0,0.1,0c3.6,0,7-1.3,9.7-3.6c0.5-0.4,1.1-0.4,1.6,0l4,4.1c0.5,0.5,0.4,1.3-0.1,1.7c-4.1,4-9.7,6.2-15.5,6.2
			c-12.7,0-22.9-10.3-22.9-22.9S547.5,0.4,560.1,0.4C560.1,0.4,560.1,0.4,560.1,0.4L560.1,0.4z"/>
		<path class="st0" d="M455.7,2.2c0.1-0.6,0.6-1,1.1-0.9h4.8c0.4,0,0.9,0.2,1.1,0.6l15.5,29.5h0.2L494,1.9c0.2-0.4,0.6-0.7,1.1-0.6
			h4.7c0.6-0.1,1.1,0.4,1.2,0.9c0,0,0,0,0,0v42c0.2,0.6-0.1,1.2-0.7,1.4c-0.1,0-0.3,0.1-0.4,0.1h-5.7c-0.5,0-1-0.4-1.2-0.9V21h-0.2
			L480,45.5c-0.2,0.4-0.6,0.7-1.1,0.7h-1.1c-0.5,0-0.9-0.3-1.1-0.7L463.9,21h-0.2v23.7c-0.1,0.5-0.6,0.9-1.1,0.9h-5.6
			c-0.6,0-1.2-0.4-1.2-1.1c0-0.1,0-0.2,0-0.4V2.2z"/>
	</g>
</g>
</svg>
