<?xml version="1.0" encoding="utf-8"?>
<!-- Generator: Adobe Illustrator 25.3.1, SVG Export Plug-In . SVG Version: 6.00 Build 0)  -->
<svg version="1.1" id="Calque_1" xmlns="http://www.w3.org/2000/svg" xmlns:xlink="http://www.w3.org/1999/xlink" x="0px" y="0px"
	 viewBox="0 0 317.4 67.6" style="enable-background:new 0 0 317.4 67.6;" xml:space="preserve">
<style type="text/css">
	.st0{fill:#606676;}
	.st1{fill:#F3903A;}
</style>
<g id="Calque_2_1_">
	<g id="Calque_1-2">
		<path class="st0" d="M23,1.2C23,0.6,23.6,0,24.2,0c0,0,0,0,0,0h7.1c0.6,0,1.2,0.5,1.1,1.2c0,0,0,0,0,0v65.2c0,0.6-0.6,1.2-1.2,1.1
			h-7c-0.6,0-1.2-0.5-1.2-1.1L23,1.2z"/>
		<path class="st0" d="M10.5,1.2C10.5,0.6,11,0,11.7,0c0,0,0,0,0,0H14c0.6,0,1.2,0.5,1.2,1.2c0,0,0,0,0,0v65.2
			c0,0.6-0.5,1.1-1.1,1.1h-2.3c-0.6,0-1.2-0.5-1.2-1.1V1.2z"/>
		<path class="st0" d="M0,1.2C0,0.6,0.5,0,1.2,0c0,0,0,0,0,0H2c0.6,0,1.2,0.5,1.2,1.2c0,0,0,0,0,0.1v65.2c0,0.6-0.6,1.2-1.2,1.1H1.2
			c-0.6,0-1.2-0.5-1.2-1.1V1.2z"/>
		<path class="st0" d="M111.9,19.1h-9.8c-0.7,0-1.2-0.5-1.2-1.2v-5.2c0-0.7,0.5-1.2,1.2-1.2H130c0.7,0,1.2,0.6,1.2,1.2v5.2
			c0,0.7-0.5,1.2-1.2,1.2l0,0h-9.8v35.8c0,0.7-0.6,1.2-1.2,1.2h-5.9c-0.7,0-1.2-0.6-1.2-1.2V19.1z"/>
		<path class="st0" d="M163.2,10.8c5.7-0.1,11.3,2,15.4,5.9c0.5,0.4,0.6,1.2,0.2,1.7c0,0-0.1,0.1-0.1,0.1l-3.9,4
			c-0.3,0.4-1,0.5-1.4,0.2c-0.1-0.1-0.1-0.1-0.2-0.2c-2.7-2.4-6.2-3.7-9.8-3.8c-8.2,0-14.2,6.8-14.2,14.8c-0.2,8,6.2,14.6,14.1,14.7
			c0,0,0.1,0,0.1,0c3.6,0,7-1.3,9.8-3.6c0.4-0.4,1.2-0.4,1.6,0l3.9,4.1c0.5,0.5,0.4,1.3-0.1,1.7c0,0,0,0,0,0
			c-4.1,4-9.7,6.2-15.5,6.2c-12.7,0.3-23.2-9.8-23.4-22.5c-0.3-12.7,9.8-23.2,22.5-23.4C162.5,10.8,162.9,10.8,163.2,10.8
			L163.2,10.8z"/>
		<path class="st0" d="M187.3,54.4l19.8-42.9c0.2-0.4,0.6-0.7,1.1-0.7h0.6c0.5,0,0.9,0.3,1.1,0.7l19.6,42.9c0.3,0.5,0.1,1.2-0.4,1.5
			c-0.2,0.1-0.4,0.2-0.6,0.1h-5.6c-0.8,0.1-1.6-0.5-1.9-1.3l-3.1-6.9h-19l-3.1,6.9c-0.3,0.8-1,1.3-1.9,1.3h-5.5
			c-0.6,0.1-1.2-0.4-1.2-1C187.1,54.8,187.1,54.6,187.3,54.4z M214.8,40.8l-6.4-14h-0.2l-6.2,14H214.8z"/>
		<path class="st0" d="M241.4,12.7c0-0.6,0.5-1.2,1.1-1.2h15.1c12.3,0,22.3,10,22.3,22.3c0,12.3-10,22.3-22.3,22.3c0,0,0,0,0,0
			h-15.1c-0.6,0-1.2-0.6-1.1-1.2V12.7z M256.9,48.3c8.3,0,14.3-6.2,14.3-14.6s-6-14.5-14.3-14.5h-7.3v29.1H256.9z"/>
		<path class="st1" d="M84.4,51.6c9.8-7.9,11.3-22.3,3.4-32.1S65.5,8.1,55.7,16.1s-11.3,22.3-3.4,32.1c6,7.4,16,10.3,25.1,7.3
			l2.6,4.3c0.2,0.3,0.6,0.6,1,0.6h6.8c0.7,0,1.2-0.5,1.2-1.2c0-0.3-0.1-0.5-0.2-0.7L84.4,51.6z M55.4,33.8c0-8.1,6.6-14.6,14.6-14.6
			s14.6,6.6,14.6,14.6c0,8.1-6.6,14.6-14.6,14.6c0,0,0,0,0,0C61.9,48.4,55.4,41.8,55.4,33.8L55.4,33.8z"/>
		<path class="st0" d="M295.3,66.2l13.8-32c0.1-0.3,0.1-0.5,0-0.8l-13.8-32c-0.2-0.5,0-1.1,0.5-1.3c0.1-0.1,0.3-0.1,0.4-0.1h6
			c0.4,0,0.8,0.2,0.9,0.6l14.2,32.8c0.1,0.3,0.1,0.5,0,0.8L303.2,67c-0.2,0.4-0.5,0.6-0.9,0.6h-6c-0.6,0-1-0.4-1.1-0.9
			C295.2,66.5,295.2,66.3,295.3,66.2z"/>
	</g>
</g>
</svg>
