<?xml version="1.0" encoding="utf-8"?>
<!-- Generator: Adobe Illustrator 25.0.1, SVG Export Plug-In . SVG Version: 6.00 Build 0)  -->
<svg version="1.1" id="Calque_1" xmlns="http://www.w3.org/2000/svg" xmlns:xlink="http://www.w3.org/1999/xlink" x="0px" y="0px"
	 viewBox="0 0 319 124.4" style="enable-background:new 0 0 319 124.4;" xml:space="preserve">
<style type="text/css">
	.st0{fill:#606676;}
	.st1{fill:#F3903A;}
</style>
<g id="Calque_2_1_">
	<g id="Calque_1-2">
		<path class="st0" d="M0,39.3c0-0.7,0.5-1.2,1.2-1.2h18.2C27,38,33.2,44.1,33.3,51.7c0,0,0,0,0,0c0,5.8-3.9,10.6-9.4,12.9l8.7,16.2
			c0.4,0.6,0.2,1.3-0.4,1.7c-0.2,0.1-0.5,0.2-0.7,0.2h-6.7c-0.4,0-0.8-0.2-1-0.6l-8.5-16.8h-7v16.2c0,0.7-0.6,1.2-1.2,1.2H1.2
			C0.5,82.6,0,82,0,81.4V39.3z M18.7,58.3c3.5-0.1,6.3-3,6.3-6.5c-0.1-3.4-2.9-6.2-6.3-6.2H8.3v12.7H18.7z"/>
		<path class="st0" d="M48.5,39.3c0-0.7,0.5-1.2,1.2-1.2c0,0,0,0,0,0h25.9c0.7,0,1.2,0.5,1.2,1.2v5.2c0,0.7-0.5,1.2-1.2,1.2H56.8
			v10.4h15.7c0.7,0,1.2,0.6,1.2,1.2v5.3c0,0.7-0.5,1.2-1.2,1.2H56.8V75h18.8c0.7,0,1.2,0.5,1.2,1.2v5.2c0,0.7-0.5,1.2-1.2,1.2H49.7
			c-0.7,0-1.2-0.5-1.2-1.2c0,0,0,0,0,0V39.3z"/>
		<path class="st0" d="M89.5,76.3l2.3-3.9c0.4-0.7,1.3-0.9,2-0.5c0,0,0.1,0.1,0.1,0.1c0.3,0.2,5.5,3.9,9.6,3.9
			c3.3,0,5.8-2.2,5.8-4.9c0-3.2-2.7-5.5-8.1-7.6c-6-2.4-12-6.2-12-13.7c0-5.7,4.2-12.2,14.3-12.2c4.6,0.1,9,1.6,12.7,4.3
			c0.6,0.5,0.8,1.4,0.4,2.1l-2.4,3.6c-0.4,0.8-1.4,1.2-2.2,0.8c-0.5-0.3-5.3-3.5-8.8-3.5s-5.6,2.4-5.6,4.5c0,3,2.4,5,7.5,7.1
			c6.2,2.5,13.3,6.2,13.3,14.4c0,6.6-5.7,12.6-14.6,12.6c-8,0-12.7-3.8-14-5C89.2,77.7,88.9,77.4,89.5,76.3z"/>
		<path class="st0" d="M152.4,37.4c5.7-0.1,11.2,2,15.4,5.9c0.5,0.4,0.6,1.2,0.2,1.7c0,0-0.1,0.1-0.1,0.1l-3.9,4
			c-0.3,0.4-1,0.5-1.4,0.2c-0.1-0.1-0.1-0.1-0.2-0.2c-2.7-2.4-6.2-3.7-9.8-3.8c-8.1,0-14.2,6.8-14.2,14.8c-0.2,8,6.2,14.5,14.1,14.7
			c0,0,0.1,0,0.1,0c3.6,0,7-1.3,9.7-3.6c0.5-0.4,1.1-0.4,1.6,0l4,4.1c0.5,0.5,0.4,1.3-0.1,1.7c-4.1,4-9.7,6.2-15.5,6.2
			c-12.6,0.3-23.1-9.8-23.4-22.4c-0.3-12.6,9.8-23.1,22.4-23.4C151.8,37.4,152.2,37.4,152.4,37.4L152.4,37.4z"/>
		<path class="st0" d="M181.6,39.3c0-0.7,0.6-1.2,1.2-1.2h6c0.7,0,1.2,0.5,1.2,1.2v0v26c0,5.4,3.7,9.7,9.2,9.7s9.3-4.3,9.3-9.6V39.3
			c0-0.7,0.5-1.2,1.2-1.2l0,0h6c0.7,0,1.2,0.6,1.2,1.2v26.5c0,9.8-7.9,17.7-17.7,17.7c-9.8,0-17.7-7.9-17.7-17.7L181.6,39.3z"/>
		<path class="st1" d="M304.2,99.8v-13c8.8-0.6,15.5-8.2,14.9-17c-0.5-8-6.9-14.4-14.9-14.9V24.6C311,24,316,18,315.4,11.2
			c-0.6-6.4-6-11.3-12.4-11.2c-6.8,0-12.3,5.5-12.3,12.2c0,0,0,0.1,0,0.1c0,3,1.1,5.9,3.1,8.2l-37.7,40.5
			c-5.4-4.1-13.1-3.1-17.3,2.3c-4.1,5.4-3.1,13.1,2.3,17.3c5.4,4.1,13.1,3.1,17.3-2.3c1.4-1.8,2.2-4,2.5-6.3h26.2
			c0.5,7.9,6.8,14.2,14.8,14.8v13c-6.8,0.7-11.7,6.7-11.1,13.4s6.7,11.7,13.4,11.1s11.7-6.7,11.1-13.4
			C314.7,105,310.1,100.4,304.2,99.8L304.2,99.8z M303,5.5c3.8,0,6.9,3,6.9,6.8c0,3.8-3,6.9-6.8,6.9c-3.8,0-6.9-3-6.9-6.8
			c0,0,0,0,0,0C296.2,8.6,299.2,5.5,303,5.5z M248.6,77.7c-3.8,0-6.8-3.1-6.8-6.9c0-3.8,3.1-6.8,6.9-6.8c3.8,0,6.8,3.1,6.8,6.9
			c0,0,0,0,0,0C255.5,74.7,252.4,77.7,248.6,77.7z M287.1,69.7h-26.2c-0.2-2.6-1.3-5-3-7l37.7-40.6c1.8,1.4,4,2.2,6.3,2.5v30.3
			C293.9,55.4,287.6,61.7,287.1,69.7L287.1,69.7z M294.1,70.9c0-4.9,3.9-8.9,8.8-8.9c4.9,0,8.9,3.9,8.9,8.8c0,4.9-3.9,8.9-8.8,8.9
			c0,0-0.1,0-0.1,0C298.1,79.7,294.2,75.8,294.1,70.9L294.1,70.9z M303,119c-3.8,0-6.8-3.1-6.8-6.9c0-3.3,2.4-6.1,5.6-6.7v0.7h2.4
			v-0.7c3.7,0.7,6.2,4.2,5.5,8C309.1,116.6,306.3,119,303,119z"/>
	</g>
</g>
</svg>
